<?xml version="1.0" encoding="UTF-8"?>
<svg id="Layer_2" data-name="Layer 2" xmlns="http://www.w3.org/2000/svg" viewBox="0 0 500 214.28">
  <defs>
    <style>
      .cls-1 {
        fill: #efefef;
      }
    </style>
  </defs>
  <path class="cls-1" d="m74.85,188.38c-.81-.9-1.64-1.68-2.28-2.64-.66-1.01-1.4-1.91-1.87-2.99-.3-.65-1.58-1.79-2.48-4.09-.49-1.25-.95-2.7-1.56-4.26-.51-1.31-.2-3.13-.79-4.65-.45-1.17-.85-2.41-1.33-3.65-.46-1.18-.98-2.36-1.47-3.6-.47-1.18-1.64-2.04-2.13-3.28-.52-1.29.13-3.16-.39-4.47-.52-1.3-2.57-1.85-3.09-3.17-.52-1.31.5-3.39-.02-4.71-.51-1.28-1.96-2.06-2.45-3.29-.51-1.26-.2-2.9-.69-4.1-.51-1.26-1.7-2.14-2.19-3.34-.66-1.6-2.01-2.71-2.59-4.09-.68-1.62-1.02-3.24-1.6-4.57-1.06-2.45-1.89-4.02-2.41-4.87-1.21-2.13-2.7-3.05-4.93-3.55-2.22-.49-4.31-1.78-6.65-1.34-2.11.34-3.83,2.19-5.69,2.99-1.85.8-3.05.84-3.73,1.3-.58,2.04-2.15,3.76-2.7,5.66-.59,2.05-1.18,4.01-1.73,5.88-.38,1.29.35,2.83-.06,4.23-.38,1.3-.83,2.65-1.24,4.05-.39,1.31-.91,2.65-1.33,4.04-.45,1.53-1.34,2.99-1.8,4.56-.45,1.54-.83,3.11-1.29,4.69-.45,1.54-1.48,3-1.93,4.59-.46,1.59-.37,3.26-.82,4.82-.46,1.6-.82,3.19-1.27,4.76-.45,1.56-1.46,3.02-1.91,4.55-.41,1.43-.71,2.84-1.1,4.19-.41,1.43.25,2.99-.14,4.34-.42,1.43-2,2.62-2.39,3.95-.48,1.66-.47,3.25-.87,4.63-.5,1.73-1.38,3.15-1.76,4.43-.67,2.29-1.27,3.47-1.34,3.71-.98,2.79-.99,5.43-.62,7.12.38,1.69,1.48,2.98,2.53,3.82,1.06.84,2.12,1.57,3.1,1.81,2.11.46,4.16.84,5.86.61,1.69-.23,3.46-1.18,5.05-2.06,1.28-.7,1.93-2.49,3.17-3.56,1.24-1.07,2.53-1.78,3.81-3.15-.75-.28-.91-.92-1.14-2.17-.23-1.26.07-2.54.37-3.79.31-1.4.89-3.04,2.39-3.76,1.51-.72,3.36-1.32,5.22-1.62,1.85-.31,3.44-.53,4.72-.69s2.98-.36,5.02-.49c2.03-.12,3.95.56,5.77.88,1.81.33,2.8,1.29,3.33,2.52.79,1.63,2.05,2.74,2.85,3.96,1.03,1.57,1.81,2.96,2.85,3.85,1.85,1.58,3.39,3.45,5.13,3.64,1.74.19,3.53-.3,4.88-.59,1.26-.25,2.53-.85,3.72-1.4,1.16-.53,2.06-1.65,3.14-2.47,1.42-1.08,3.23-1.99,4.4-3.62,1.02-1.42,1.25-3.24,2.1-5.08-1.21-.87-2-2.61-3.66-4.45Zm-36.85-18.47c-.34,1.03-1.08,1.55-3.05,1.94-2.49.38-3.91.16-4.4-1.14-.49-1.3-1.33-2.66-1.1-4.13.16-1.53,1.08-3.42,2.32-5.05,1.25-1.63,2.82-1.84,3.88-1.97.75-.09,1,.19,1.5,1.08.49.89.88,1.81,1.15,2.98.26,1.18,1.13,2.04,1.13,2.86-.08,1.3-1.08,2.4-1.42,3.42Z"/>
  <path class="cls-1" d="m134.9,144.58c-.68-1.96-1.11-4.19-2.14-6.05-1.02-1.86-2.62-3.25-3.91-4.29-1.28-1.05-2.8-.14-4.31.35-1.51.49-2.79,1.15-4.26,2.02-1.48.86-2.89,1.7-4.33,2.88-.68.5-2.23-.24-3.71-.12-1.47.11-3.11,1.08-4.67.86-1.55-.21-2.37-1.74-3.28-2.05-1.89-.67-4.19-.64-6.38-.68-2.2-.04-4.26.2-6.11.44-1.86.24-3.77.4-4.53.62.02,1.46.14,3.15.16,4.51.02,1.46-.34,2.9-.33,4.25.02,1.46.44,2.82.46,4.16.01,1.3.12,2.63.13,4,.01,1.31.85,2.57.86,3.95.01,1.32-1.05,2.77-1.04,4.14.01,1.41,1.04,2.71,1.05,4.08.01,1.4-.16,2.8-.15,4.17.01,1.4.6,2.72.61,4.09.02,1.84-1.45,3.71-1.44,5.3.02,1.88,1.63,3.42,1.65,4.95.03,2.84-.97,4.77-.96,5.61,0,1.58,1.21,2.69,1.51,3.94.36,1.49-.36,3.35.43,4.35.76.98,1.81,2.2,3.02,2.59,1.07.34,2.66.06,4.08-.06,1.51-.13,3.06-.42,4.46-.8,1.46-.4,2.89-1.13,4.22-1.81,2.62-1.31,4.37-2.67,5.35-3.66-.22-.36-.72-.75-1.06-1.29-.34-.54-.26-1.6-.33-2.96,0-1.52-.4-3.32-.54-5.51-.15-2.18-.7-4.35-.47-6.41.2-1.82.9-3.51,1.21-5.02.38-1.85,1.12-3.45,1.66-4.84.98-2.54,2.5-4.39,3.87-6.09,1.36-1.69,2.18-3.79,3.71-5.04,1.24-1,2.62-1.8,3.87-2.58,1.34-.84,2.7-1.68,4.05-2.27,1.39-.6,3.04-.88,4.7-1.42,1.46-.47,2.49-1.23,4.16-1.65-.35-1.25-.66-1.79-1-2.88-.39-1.25.11-2.73-.26-3.78Z"/>
  <path class="cls-1" d="m201.55,168.07c-.68,1.3-2.19,1.92-4.05,3.99-.99,1.1-1.76,2.62-3.15,3.6-1.22.85-2.98.94-4.5,1.7-1.2.6-2.25,1.73-3.68,2.12-1.29.36-2.63,1.37-4.11,1.56-1.33.17-2.83-.28-4.3-.24-2.2.02-4.64-.45-6.49-1.76-.96-.68-1.66-1.85-2.39-2.8-.69-.89-1.78-1.77-2.28-2.9-.21-.48.78-2.72.62-5.36-.09-1.45.09-3.16.01-5.01-.06-1.58-.99-3.19-1.04-4.93-.05-1.64.81-3.39.77-5.08-.04-1.7-1.25-3.31-1.28-4.97-.03-1.75-.45-3.43-.47-5.01-.02-1.86,1.76-3.65,1.76-5.12,0-2.58-.8-4.37-.73-4.97.26-1.76.98-3.32,1.57-4.9.61-1.64.42-3.7,1.38-5.15.99-1.5,2.91-2.26,4.47-3.18,1.41-.84,3.15-.69,5.02-1.06,1.59-.29,2.96-.57,4.63-.1,1.67.47,2.27,1.3,3,2.19.72.88.26,1.02-1.18,2.06.84.95,2.74,2.11,4.04,1.99,1.29-.12,3.03-.5,4.43-1.42,1.4-.91,2.79-2.3,3.85-3.69,1.07-1.39,1-3.35,1.3-4.95.3-1.67-.27-3.2-1.1-5.06-.84-1.87-2.32-3.16-4.13-4.8-.94-.85-1.2-2.58-2.36-3.25-1.09-.63-2.33-1.17-3.61-1.64-1.37-.5-3.04.14-4.58-.05-1.44-.17-2.81-.36-4.39-.26-1.7.11-3.54-.53-5.34-.05-1.64.44-2.95,2.15-4.68,2.9-1.84.8-3.79,1.23-5.54,2.34-1.68,1.07-3.26,2.3-4.86,3.66-1.1.94-2.11,1.92-3.09,2.98-.98,1.05-1.87,2.15-2.73,3.32-.84,1.15-1.51,2.39-2.24,3.66-.77,1.33-2.22,2.39-2.77,3.84-.54,1.41-.94,2.97-1.26,4.49-.31,1.46.68,3.05.56,4.6-.08.96-1.07,2.63-1.09,4.79-.02,1.41-.35,3.05-.35,4.81,0,1.5,1.05,3.05,1.06,4.73.02,1.55-.11,3.17-.08,4.8.03,1.58-.87,3.27-.83,4.88.04,1.61.62,3.18.66,4.76.05,1.65.93,3.18.99,4.73.07,1.68-1.44,3.46-1.36,4.95.1,1.77.76,3.32.87,4.7.19,2.31,1.26,3.7,1.49,4.42.44,1.32-.05,2.99.51,4.16.6,1.24,1.72,2.12,2.45,3.18.77,1.12,1.66,2.05,2.58,2.96,1.28,1.26,2.96,1.81,4.37,2.76,1.47,1,2.8,1.85,4.41,2.51,1.52.62,2.56,2.35,4.06,2.77,1.59.44,3.27.55,4.84.76,1.4.18,2.66.84,3.88.92,1.43.09,2.83-.26,4.02-.31,2.01-.08,3.89-.93,5.7-1.37,1.93-.48,3.72-1.12,5.41-2.02,1.61-.86,3.6-1.14,4.97-2.21,1.41-1.11,2.4-2.78,3.55-4.12,1.1-1.28,2.62-2.28,3.44-3.59.87-1.41.1-3.55.65-5.02.5-1.34,2.46-2.26,2.65-3.51.22-1.38-.13-2.9-.29-4.16-.31-2.42-1.84-3.32-3.67-4.56Z"/>
  <path class="cls-1" d="m274.63,184.88c-.42-1.48-2.1-2.72-2.17-4.08-.03-1.58-.17-3.14-.18-4.63-.02-1.58.25-3.13.25-4.62,0-1.59.01-3.13.03-4.62.01-1.59.3-3.12.34-4.59.04-1.59,1.26-3.06,1.32-4.51.07-1.74.2-3.41.21-4.98,0-1.73-1.02-3.38-1.08-4.95,0-.04.99-.06.99-.1,0-2.4-1.11-2.42-1.1-4.82,0-2.4.06-2.4.07-4.81,0-2.41.3-2.4.3-4.81,0-2.41.38-2.4.39-4.81,0-2.41-1.06-2.43-1.06-4.84,0-2.41.25-2.4.25-4.81,0-2.41.05-2.41.05-4.81,0-2.41.21-2.4.21-4.81,0-2.39.09-2.39.1-4.78,0-2.39.52-2.39.52-4.78,0-2.4-.07-2.4-.07-4.8,0-2.41.1-2.41.1-4.82,0-2.42-.48-2.42-.47-4.84,0-2.41.42-2.4.42-4.81,0-2.41-.86-2.42-.85-4.82,0-2.41.61-2.4.61-4.81,0-2.42-.23-2.42-.22-4.84,0-2.41-.9-2.43-.89-4.84,0-2.41,1.47-2.39,1.48-4.81,0-2.42.11-2.42.11-4.84,0-2.42-.51-2.43-.51-4.84,0-2.42-.74-2.43-.73-4.84,0-2.41.41-2.41.41-4.82,0-2.43,1.09-2.41,1.1-4.83,0-2.43-.64-2.44-.64-4.87,0-2.44.23-2.43.23-4.87,0-2.44-1.36-2.46-1.36-4.89,0-1.51,1.42-3.03,1.3-4.51-.11-1.48-.34-2.49-.41-3.03-.31-2.57-1.93-4.39-3.68-5.92-1.75-1.53-3.62-3.03-6.09-3.69-1.23-.33-2.58-.05-3.83-.23-1.25-.19-2.49.09-3.76.05-2.54-.09-3.97-.3-5.86-.08.54,2.13-.01,3.68.3,5.48.39,2.23,1.55,4.17,1.59,5.88.02,2.37-.92,2.38-.91,4.76,0,2.38.41,2.38.41,4.76,0,2.38-.52,2.38-.51,4.76,0,2.38.54,2.38.54,4.76,0,2.38.38,2.38.38,4.75,0,2.38-1.39,2.38-1.38,4.76,0,2.36.44,2.36.45,4.72,0,2.36-.51,2.36-.51,4.73,0,2.37.39,2.37.4,4.74,0,2.38,1.11,2.38,1.12,4.75,0,2.39-.23,2.39-.22,4.77,0,2.38-.09,2.38-.09,4.75,0,2.37-.51,2.38-.51,4.75,0,2.38-.38,2.38-.38,4.76,0,2.39,0,2.39,0,4.78,0,2.38,1.21,2.38,1.22,4.77,0,2.38-1.39,2.39-1.38,4.77,0,2.39.37,2.39.38,4.78,0,2.39-.33,2.39-.32,4.78,0,2.39,1.27,2.38,1.28,4.77,0,2.38-.57,2.38-.56,4.77,0,2.4-.35,2.4-.34,4.79,0,2.4-.16,2.4-.15,4.8,0,2.41,1.27,2.4,1.28,4.81,0,2.4-.32,2.42-.68,4.8-.78.26-1.34.69-2.32,1.08-1.52.53-3.35.6-5.33.87-1.97.27-3.84.59-5.13-.16-1.14-.75-1.43-2.43-2.11-3.86-.69-1.43-1.63-3.04-1.55-5.16,0-.37,1.05-2.15,1.04-4.63,0-1.36-.92-2.92-.93-4.6,0-1.5.26-27.34.25-28.92,0-1.58.33-3.16.32-4.66,0-1.69-.79-3.27-.8-4.65-.02-2.49.68-4.32.66-4.68-.11-1.48.28-2.56.21-3.1-.31-2.57-2.84-3.82-4.58-5.32-1.75-1.49-3.38-2.8-5.85-3.41-1.23-.3-2.41-.64-3.66-.8-1.25-.16-2.45-1.37-3.72-1.38-2.54-.03-5.21.68-7.1.94.54,2.12,2.02,4.18,2.34,5.96.39,2.22.01,4.31.05,6.04.02,2.33-.12,2.33-.11,4.66,0,2.33-.45,2.34-.44,4.67,0,2.33,1.23,2.31,1.24,4.64,0,2.34-.78,26.62-.77,28.97.01,2.35.87,2.33.87,4.68,0,2.34-.59,2.36-.58,4.7.01,2.34-.85,2.36-.84,4.7,0,2.34.85,2.33.86,4.67,0,2.36.8,2.34.81,4.69.01,2.35-1.65,2.39-1.64,4.74,0,2.35-.15,2.35-.14,4.71,0,2.36,1.19,2.33,1.2,4.69,0,2.35.32,2.35.33,4.7.01,2.35-.7,2.37-.69,4.72,0,2.35-.5,2.36-.48,4.71,0,2.36.55,2.35.56,4.71,0,2.36.38,2.36.39,4.72.01,2.37-.49,2.38-.48,4.75,0,2.37.68,2.35.72,4.72.08,2.27-.67,4.63-.06,6.65.61,2.04,2.43,3.09,3.8,4.17,1.37,1.07,2.81,1.36,4.94,1.02,1.69-.3,3.37.03,4.7-.43,1.65-.57,2.79-1.76,3.88-2.58,1.03-.79,2.62-1.14,3.53-2.23.83-.98,1.32-2.55,2.04-3.78-1.37-2.03-2.32-4.17-2.25-6.52.02-1.76,1.13-3.33,1.3-4.91.19-1.75-.72-3.53-.36-5.06.41-1.71,1.22-3.21,1.86-4.63.79-1.76,1.96-3.04,2.94-4.32,1.16-1.5,2.35-2.55,3.79-3.37,1.68-.99,2.88-1.38,4.21-1.03,1.33.34,2.47,1.42,2.93,3.92.23,1.29-.03,3.1,0,5.38.04,2.27-.16,4.65-.16,7.14,0,2.5.79,4.73.71,6.66-.07,1.93.08,3.17.08,3.77.07,2.27.06,4.36.94,6.34.87,1.97,1.77,4.1,3.55,5.12,1.78,1.03,4.4,1.15,7.05.79,1.45-.22,2.81-.88,4.16-1.37,1.34-.49,2.2-1.84,3.45-2.6,2.5-1.52,5-2.36,5.99-3.64-1.67-.7-2.42-1.86-2.84-3.34Z"/>
  <path class="cls-1" d="m312.88,187.7c-.79-.97-1.29-1.72-1.37-3.08-.08-1.84-.13-3.67-.16-5.52-.03-1.84-.45-3.7-.44-5.56,0-1.84-.41-3.72-.36-5.57.02-.69,1.16-2.28,1.18-4.64.01-1.34-.55-2.94-.54-4.71,0-1.44.32-3.01.33-4.68,0-1.49.35-3.05.36-4.68,0-1.52-.42-3.1-.42-4.72,0-1.53-.07-3.11-.07-4.71,0-1.54-.06-3.1-.06-4.68,0-1.56-.31-3.14-.3-4.71,0-1.57.53-3.13.53-4.7,0-1.58.4-3.15.41-4.72,0-1.6-.66-3.2-.66-4.76,0-1.61.28-3.17.28-4.71,0-1.62-.88-3.23-.87-4.75,0-1.65.8-3.21.8-4.71,0-1.69.19-3.26.19-4.71,0-1.78.29-3.34.3-4.68.01-2.42-1.08-4.11-1.07-4.72.03-2.12.99-4.04.94-5.79-.07-2.21-.83-4.13-1.04-5.74-.22-2.05-.54-4.21-1.87-5.47-1.33-1.26-3.6-1.07-5.46-1.69-1.86-.62-3.54-2.22-5.51-2.43-1.98-.2-3.82.26-5.45.34-1.63.07-2.36.34-3.04.4.03,1.82-.9,3.4-.87,5.05.03,1.84,1.23,3.58,1.25,5.2.02,1.59-.05,3.24-.03,4.96.02,1.6.3,3.26.32,4.98,0,.48-.4,2.13-.39,4.64,0,1.33.04,2.89.04,4.65,0,1.43-.23,2.99-.23,4.65,0,1.48-1.07,3.01-1.07,4.63,0,1.51.94,3.08.94,4.68,0,1.52.26,3.09.26,4.67,0,1.53-1.09,3.06-1.09,4.63,0,1.55-.1,3.11-.1,4.67,0,1.57,1.29,3.16,1.29,4.71,0,1.58-.72,3.13-.72,4.68,0,1.59.88,3.17.88,4.7,0,1.6-1.18,3.14-1.18,4.65,0,1.64-.13,3.21-.13,4.7,0,1.67-.1,3.24-.1,4.68,0,1.76.79,3.35.79,4.68,0,2.52-.34,4.17-.33,4.63.02,1.54.12,2.98.14,4.33.02,1.57,1.2,3.01,1.22,4.31.04,2.43-1.58,3.99-1.65,4.82-.06,2.13.69,4.12.83,5.85.18,2.2,1.44,3.82,1.94,5.38.91,2.79,1.4,4.9,2.88,6.19,1.48,1.28,2.92,1.7,4.44,2.01,1.52.31,2.65.8,3.64.76,3.03-.3,5.25-.88,6.88-1.47,1.63-.59,2.37-1.62,3.21-2.35.84-.73,2.63-.9,3.16-1.55-1.14-.88-2.06-2.05-2.86-3.02Z"/>
  <path class="cls-1" d="m392.62,166.54c-.2-1.9-1.41-3.67-1.83-5.46-.44-1.86-.98-3.6-1.67-5.35-.7-1.78-1.64-3.35-2.6-5-.92-1.6-1.52-3.27-2.62-4.68-1.12-1.44-2.14-2.93-3.44-4.17-1.31-1.24-2.34-2.94-3.83-3.98-1.5-1.04-3.5-1.2-5.13-1.94-1.62-.73-3.4-.6-5.15-1.03-1.68-.42-3.28-1.1-5.07-1.24-1.21-.15-2.22-1.61-3.31-1.87-1.1-.26-2.36.61-2.96.2-1.67-1.16-2.23-3.3-2.5-5.63-.08-.7-1.19-2.45-1.28-4.61-.06-1.42,1.14-3,1.08-4.6-.07-1.59-.8-3.2-.87-4.62-.1-2.12.32-3.87.21-4.62-.45-2.6-1.38-5.26-3.27-6.84-.96-.8-2.87-.11-3.96-.7-1.07-.58-1.91-1.47-3.11-1.85-2.43-.76-4.63-2.14-6.87-2.37-2.24-.22-3.53.94-4.66,1.12.08.46-.16,1.32-.16,3.94,0,.82-.82,2.78-.82,5.26,0,1.63.13,3.47.13,5.32,0,1.83-.28,3.66-.28,5.32,0,2.23,1.48,4.22,1.46,5.34-.01,1.45-.2,2.95-.2,4.53,0,1.47-.97,2.95-.97,4.52,0,1.48,1.13,3.05,1.14,4.62.01,1.7-.15,3.4-.14,5.12.02,1.7.03,3.4.05,5.12.02,1.72-1.01,3.42-.99,5.16.03,1.73,1.28,3.47,1.32,5.16.04,1.71-1.09,3.39-1.03,5.07.06,1.71.03,3.41.11,5.09.07,1.54.77,3.03.86,4.48.09,1.54.72,3.01.84,4.44.13,1.54.62,2.99.77,4.41.18,1.75-1.41,3.49-1.19,4.92.28,1.82,1.51,3.28,1.85,4.57.53,2.07.82,4.39,2.12,5.93,1.29,1.53,3.68,1.46,5.12,2.29,1.44.83,2.24,1.81,3.15,1.93.99.12,1.73.26,2.34.14.61-.12,1.2-.4,1.88-.59,2.12-.56,4.58-.42,7.19.12,2.62.53,4.82,1.57,6.65,1.68,1.33.08,2.78.37,4.12.3,1.32-.07,2.5-1.27,3.82-1.5,1.29-.22,2.8.19,4.09-.17,1.33-.38,2.06-2.13,3.3-2.69,1.24-.56,3.02-.15,4.18-.88,1.12-.72,1.33-2.62,2.37-3.51,1.09-.94,2.57-1.38,3.48-2.51.89-1.11,2.28-1.92,3-3.22.69-1.24,1.45-2.57,1.98-3.98.61-1.61,1.42-3.39,1.71-5.27.27-1.71-.53-3.75-.52-5.68,0-1.76.34-3.61.13-5.55Zm-19.78,9.91c-.76,2.22-2.44,3.93-4.06,5.29-1.63,1.37-3.92,1.8-6.57,1.7-2.2-.14-3.47-1.53-4.94-3.4-.76-.96-2.12-1.53-2.67-2.68-.52-1.08-1.66-2.12-1.99-3.37-.68-2.58-.59-5.15-.51-7.26.07-2.19,1.76-4.04,2.59-6.31.84-2.25.93-4.81,2.52-6.27,1.59-1.46,3.82-1.61,6.03-1.47,2.73.17,5.51.49,6.98,2.29,1.47,1.81,1.44,4.55,1.97,7.04.26,1.24,1.12,2.4,1.25,3.62.14,1.24-.33,2.47-.33,3.69,0,2.35.5,4.9-.26,7.12Z"/>
  <path class="cls-1" d="m458.76,179.76c-.98,1.78-1.8,3.46-3.32,5.07-1.51,1.6-3.83,1.85-5.18,2.76-.92.61-1.42,2.35-2.78,2.74-1.11.31-2.58.12-3.98.29-1.62.19-3.35-.9-5.08-1.1-1.62-.19-3.13-.55-4.85-1.1-1.51-.53-3.2-.43-4.1-1.62-.91-1.19-1.36-2.53-1.29-3.47.08-.94,1.18-1.44,2.62-1.21,1.47.23,2.99.78,4.51.75,1.45-.03,2.93-.26,4.42-.52,1.53-.27,3.28-.06,4.72-.52,1.45-.47,2.65-1.59,4.01-2.25,1.32-.64,2.49-1.45,3.6-2.22,1.18-.82,2.71-1.28,3.67-2.24.87-.88,1.58-1.94,2.15-2.86.65-1.04.1-2.65.38-3.74.31-1.34,1.75-2.33,1.86-3.63.12-1.37-.36-2.86-.47-4.2-.11-1.38.08-2.85-.27-4.19-.52-1.97-1.24-4.16-2.35-5.9-1.07-1.67-2.8-3.22-4.41-4.66-1.23-1.11-2.91-1.92-4.53-2.79-1.42-.77-3.01-1.6-4.72-2.18-1.52-.51-3.18-1.21-4.93-1.57-1.96-.4-4.05-.26-6.04-.23-1.92.02-3.57,1.41-5.52,1.82-1.34.29-2.7.31-3.99.77-1.27.45-2.65.65-3.87,1.27-1.19.6-2.5,1.06-3.64,1.82-1.16.78-1.76,2.22-2.81,3.14-1.04.92-1.95,1.88-2.87,2.94-.91,1.04-1.72,2.09-2.5,3.27-.8,1.2-1.42,2.41-2.03,3.71-.62,1.3-1.67,2.35-2.1,3.75-.43,1.38-1.03,2.72-1.28,4.19-.08.3.4.72.37,1.02-.04.3-.34.53-.35.83-.08,1.21-1.15,2.22-1.23,3.35-.07,1.14.36,2.35.43,3.42.07,1.61.42,3.2.67,4.68.26,1.59,1.13,3.04,1.6,4.49.5,1.54.46,3.25,1.19,4.63.67,1.27,2.09,2.11,2.89,3.25.82,1.17,1.83,2.09,2.79,3.12.97,1.03,1.73,2.23,2.84,3.12,1.11.89,2.53,1.22,3.72,1.98,1.19.76,2.34,1.41,3.61,2.04,1.25.62,2.51.96,3.84,1.46,1.35.51,2.43,2,3.8,2.38,1.37.38,2.77.76,4.16,1.01,1.39.25,2.78-.51,4.19-.39,1.55.14,3.09,1.29,4.51,1.27,1.53-.02,2.76-1.21,4.13-1.42,1.48-.23,3.4.93,4.69.48,1.71-.6,2.37-2.92,3.74-3.76,1.51-.92,3.83-.7,4.93-1.9,1.02-1.11,1.81-2.44,2.51-3.65.74-1.29,1.38-2.72,1.75-4.12.34-1.3.88-2.62.93-3.86.05-1.35-1.72-2.7-2.02-3.97-.57-2.46-.86-4.02-2.74-5.53Zm-32.29-17.73c-.91-.92-1.53-2.32-1.3-3.43.38-1.63,1.87-3.15,3.84-3.48,1.97-.33,4.21.84,6.32.99,1.89.12,3.8-.32,4.6.71.8,1.03.88,2.78.81,4.29,0,1.06-1.42,1.28-2.74,2.09-1.33.81-2.46,1.07-4.19,1.04-1.13-.12-2.46.7-3.82.14-1.36-.56-2.61-1.43-3.51-2.35Z"/>
  <path class="cls-1" d="m497.31,205.81c-.87-1.6-1.16-3.35-1.16-4.94,0-.53-.59-2.36-.63-5.35-.02-1.64,1.44-3.31,1.42-5.39-.02-1.72-1.61-3.8-1.63-5.83-.01-1.55.98-3,.97-4.61-.02-1.56-1.12-3.28-1.14-4.9-.02-1.56,1.35-2.97,1.33-4.59-.03-1.66.37-3.26.35-4.9-.02-1.67-.46-3.37-.48-5.01-.02-1.64-.05-3.27-.06-4.88-.01-1.46-.21-2.9-.22-4.25-.01-1.47-.23-2.89-.24-4.23-.01-1.48-.27-2.91-.29-4.22-.01-1.43.29-2.66.27-3.75-.03-1.65-.39-2.95-.43-3.82-.08-2.35-1.19-3.97-2.55-5.71-1.36-1.74-2.61-3.33-4.64-4.47-2.03-1.15-4.04-2.32-6.27-3.03-2.22-.71-4.22-1.64-6.04-1.91-1.82-.27-2.89.47-3.8.51.08.47.38,1.3.83,3.44.25,1.17.56,2.52.7,3.97.11,1.21-.13,2.53-.1,3.95.04,1.75.67,3.74.7,5.83.03,1.8-.13,3.71-.11,5.77.01,1.52-.88,2.96-.87,4.53,0,1.54-.07,3.09-.07,4.68,0,1.54.18,3.13.18,4.72,0,1.64.21,3.3.22,4.93,0,1.63.73,3.34.74,4.95.01,1.62-.08,3.21-.07,4.82.01,1.51-.89,2.88-.88,4.32,0,1.51-.06,2.97-.05,4.4,0,1.51.06,2.99.06,4.4,0,1.82.74,3.59.74,5.14,0,1.87-1.24,3.38-1.24,4.85,0,2.69,1.63,4.54,1.63,5.15,0,2.42-.88,4.94.36,6.91,1.25,1.98,3.59,3.06,5.43,4.24,1.85,1.19,3.67,2.68,5.4,2.76,2.11.05,4.14-.94,6.21-1.48,2.07-.55,3.5-1.93,5.08-2.69,1.58-.76,2.6-.56,3.05-1.11-.98-.51-1.82-1.59-2.69-3.19Z"/>
  <path class="cls-1" d="m310.71,45.12c-.58-1.3-2.24-1.96-3.36-3.12-1.23-1.27-2.09-3.27-3.84-3.85-1.53-.51-3.48-.36-5.41-.34-1.46,0-2.91.32-4.3.66-1.37.34-2.99.38-4.3,1.04-1.37.7-2.57,1.99-3.34,3.23-.71,1.15-1.62,2.7-1.82,4.31-.25,2.22.64,4.88,1.75,7.32.56,1.23,1.39,2.42,2.22,3.46.82,1.03,2.34,1.39,3.43,2.23,1.1.86,1.82,2.45,3.08,2.87,1.24.42,2.79.86,4.19.86,1.33-.04,2.67-.63,3.78-.96,1.23-.37,1.63-2.05,2.59-2.78,1.81-1.38,2.82-2.8,3.69-4.83.86-2.03,1.35-3.67,1.34-5.64,0-1.52.9-3.1.29-4.47Z"/>
</svg>