<svg xmlns="http://www.w3.org/2000/svg" xmlns:xlink="http://www.w3.org/1999/xlink" viewBox="0 0 558.51 539.96"><defs><style>.cls-1{fill:url(#Nouvelle_nuance_de_dégradé_1);}.cls-2{fill:url(#Nouvelle_nuance_de_dégradé_1_2);}.cls-3{fill:url(#Nouvelle_nuance_de_dégradé_1_3);}.cls-4{font-size:26.6px;}.cls-4,.cls-5,.cls-9{fill:#fff;font-family:TrajanPro-Bold, Trajan Pro;font-weight:700;}.cls-5{font-size:35.46px;}.cls-6{letter-spacing:0.03em;}.cls-7{letter-spacing:-0.01em;}.cls-8{letter-spacing:-0.03em;}.cls-9{font-size:99.3px;letter-spacing:0.05em;}.cls-10{fill:none;stroke:#fff;stroke-miterlimit:10;stroke-width:13px;}</style><linearGradient id="Nouvelle_nuance_de_dégradé_1" x1="247.79" y1="230.2" x2="141.13" y2="293.02" gradientUnits="userSpaceOnUse"><stop offset="0.2" stop-color="#e22b44"/><stop offset="1" stop-color="#e96226"/></linearGradient><linearGradient id="Nouvelle_nuance_de_dégradé_1_2" x1="423.96" y1="293.76" x2="327.96" y2="236.28" gradientUnits="userSpaceOnUse"><stop offset="0.1" stop-color="#71c5e5"/><stop offset="1" stop-color="#386bb1"/></linearGradient><linearGradient id="Nouvelle_nuance_de_dégradé_1_3" x1="280.35" y1="164.57" x2="280.35" y2="53.78" gradientUnits="userSpaceOnUse"><stop offset="0" stop-color="#4db05b"/><stop offset="0" stop-color="#52b15d"/><stop offset="1" stop-color="#b7d79f"/></linearGradient></defs><g id="Logo_CG"><path class="cls-1" d="M215.85,291.83c-29.77-1.1-49.57-2-79.36-1.8a1.07,1.07,0,0,1-1.08-1.06,11.15,11.15,0,0,1,1.8-5.26l16.37-29.8c11.24-20.45,23.1-39.5,39.78-57.25,3.46-3.67,6-7.61,10.71-9.48,10.11,16.13,19.69,33.88,29.34,50.3,4.05,6.88,8.08,13.85,12.05,20.76,2.78,4.83,5.74,9.88,8.56,15s4.78,9.66,7.24,14.88c1.53,3.23.87,3-2.48,3.37a94.21,94.21,0,0,1-10.36.33C238.29,291.41,224.65,292.16,215.85,291.83Z"/><path class="cls-2" d="M378.37,292.34c-29.56-1.17-49.21-2.14-78.8-2a1.07,1.07,0,0,1-1.06-1.06,11.15,11.15,0,0,1,1.8-5.22l16.34-29.53c11.22-20.28,23-39.16,39.66-56.73,3.44-3.63,6-7.54,10.65-9.38,10,16.05,19.46,33.7,29,50,4,6.84,8,13.78,11.91,20.65,2.74,4.8,5.66,9.82,8.45,14.9s4.72,9.61,7.15,14.8c1.5,3.21.85,3-2.47,3.34a93,93,0,0,1-10.29.29C400.64,292,387.1,292.69,378.37,292.34Z"/><path class="cls-3" d="M243.16,122.32c16.15-25.29,27-42,42.08-68a1.07,1.07,0,0,1,1.47-.39,11.26,11.26,0,0,1,3.65,4.24l17.51,29.43c12,20.2,22.51,40.22,29.4,63.76,1.43,4.88,3.54,9.12,2.77,14.14-19.17.54-39.47-.2-58.65-.2-8,0-16.15-.05-24.18-.13-5.61-.06-11.5-.07-17.38-.22s-10.83-.78-16.62-1.31c-3.58-.33-3-.77-1.66-3.88a94.44,94.44,0,0,1,5-9.16C232.07,142,238.39,129.79,243.16,122.32Z"/></g><g id="Text_CG"><text class="cls-4" transform="translate(250.67 387.31)">THE</text><text class="cls-5" transform="translate(184.21 525.71)">A<tspan class="cls-6" x="24.83" y="0">C</tspan><tspan x="54.26" y="0">A</tspan><tspan class="cls-7" x="79.09" y="0">D</tspan><tspan x="111.93" y="0">E</tspan><tspan class="cls-8" x="134.34" y="0">M</tspan><tspan x="170.26" y="0">Y</tspan></text><text class="cls-9" transform="translate(196.1 481.25)">CG</text><line class="cls-10" x1="112.43" y1="380.22" x2="228.99" y2="380.22"/><line class="cls-10" x1="333.93" y1="380.22" x2="445.47" y2="380.22"/><line class="cls-10" x1="112.43" y1="510.42" x2="167.98" y2="510.42"/><line class="cls-10" x1="396.73" y1="510.43" x2="445.47" y2="510.42"/></g></svg>